<svg width="150" height="150" viewBox="0 0 150 150" fill="none" xmlns="http://www.w3.org/2000/svg">
<circle cx="75" cy="75" r="74.5" fill="#3E3E3E" stroke="black"/>
<g clip-path="url(#clip0)">
<path d="M62.9064 110.145L62.9066 110.146C63.4447 112.213 64.9693 114.081 67.4509 115.874C70.2718 117.919 71.5248 121.046 70.7982 124.025C69.9182 127.63 65.8544 130.929 60.1843 130.929C57.8188 130.929 55.5732 130.314 53.6823 129.159L53.6802 129.157C52.2737 128.307 50.6314 127.863 48.9111 127.863C47.2034 127.863 45.3303 128.304 43.9299 129.162C42.0461 130.31 39.7877 130.922 37.3982 130.922C31.7264 130.922 27.6874 127.608 26.8139 124.024L26.8139 124.024C26.0873 121.046 27.3371 117.922 30.1606 115.876C32.6431 114.081 34.1673 112.209 34.7055 110.15L34.7058 110.149C36.5006 103.207 42.5006 98.1936 48.9172 98.1936C55.3264 98.1936 61.1092 103.198 62.9064 110.145Z" fill="white" stroke="black"/>
<path d="M25.2652 88.1524C26.0265 88.1524 26.7919 88.4754 27.5307 89.067C28.2698 89.6588 28.9568 90.5001 29.5456 91.4784C30.7281 93.443 31.4591 95.8652 31.4591 97.6936C31.4591 101.107 28.6791 103.887 25.2652 103.887C21.8514 103.887 19.0714 101.107 19.0714 97.6936C19.0714 95.8652 19.8026 93.443 20.9852 91.4784C21.5741 90.5001 22.2611 89.6588 23.0001 89.067C23.7389 88.4754 24.5042 88.1524 25.2652 88.1524Z" fill="white" stroke="black"/>
<path d="M66.1522 97.6936C66.1522 95.8652 66.8834 93.443 68.066 91.4784C68.6549 90.5001 69.3419 89.6588 70.0809 89.067C70.8197 88.4754 71.585 88.1524 72.346 88.1524C73.1073 88.1524 73.8727 88.4754 74.6115 89.067C75.3506 89.6588 76.0375 90.5001 76.6264 91.4784C77.8088 93.443 78.5398 95.8652 78.5398 97.6936C78.5398 101.107 75.7599 103.887 72.346 103.887C68.9321 103.887 66.1522 101.107 66.1522 97.6936Z" fill="white" stroke="black"/>
<path d="M58.9584 90.4998C55.5446 90.4998 52.7646 87.7199 52.7646 84.3051C52.7646 82.4767 53.4956 80.0547 54.678 78.0904C55.2668 77.1122 55.9538 76.2709 56.6929 75.6793C57.4317 75.0878 58.1971 74.7648 58.9584 74.7648C59.7197 74.7648 60.4851 75.0878 61.2239 75.6793C61.963 76.2709 62.6499 77.1122 63.2388 78.0904C64.4212 80.0547 65.1522 82.4767 65.1522 84.3051C65.1522 87.7199 62.3722 90.4998 58.9584 90.4998Z" fill="white" stroke="black"/>
<path d="M44.8476 84.3051C44.8476 87.7199 42.0676 90.4998 38.6537 90.4998C35.239 90.4998 32.4591 87.7198 32.4591 84.3051C32.4591 82.4767 33.1902 80.0548 34.3729 78.0904C34.9618 77.1122 35.6489 76.271 36.3881 75.6793C37.127 75.0878 37.8924 74.7648 38.6537 74.7648C39.4148 74.7648 40.1801 75.0878 40.9189 75.6793C41.6579 76.2709 42.3449 77.1122 42.9338 78.0904C44.1164 80.0548 44.8476 82.4767 44.8476 84.3051Z" fill="white" stroke="black"/>
<path d="M116.681 52.8002L116.681 52.8009C117.215 54.8509 118.724 56.9451 121.225 58.7519C124.046 60.7975 125.299 63.9241 124.573 66.9032C123.693 70.5085 119.629 73.8075 113.959 73.8075C111.593 73.8075 109.348 73.1918 107.457 72.0367L107.455 72.0355C106.039 71.1796 104.17 70.741 102.463 70.741C100.742 70.741 99.095 71.1879 97.7043 72.0403C95.8208 73.1885 93.5624 73.8006 91.1727 73.8006C85.501 73.8006 81.462 70.4864 80.5885 66.9033L80.5885 66.9032C79.8619 63.9239 81.1116 60.8007 83.9352 58.7552C86.4369 56.945 87.9462 54.8484 88.4801 52.8048L88.4804 52.8036C90.2747 45.8638 96.0503 41.0717 102.469 41.0717C108.896 41.0717 114.889 45.8729 116.681 52.8002Z" fill="white" stroke="black"/>
<path d="M79.0398 31.0305C79.8011 31.0305 80.5665 31.3535 81.3055 31.9451C82.0446 32.5369 82.7317 33.3782 83.3206 34.3565C84.5033 36.3211 85.2345 38.7433 85.2345 40.5717C85.2345 43.9855 82.4546 46.7655 79.0398 46.7655C75.626 46.7655 72.846 43.9855 72.846 40.5717C72.846 38.7433 73.5772 36.3211 74.7598 34.3565C75.3487 33.3782 76.0357 32.5368 76.7747 31.9451C77.5135 31.3535 78.2788 31.0305 79.0398 31.0305Z" fill="white" stroke="black"/>
<path d="M119.927 40.5717C119.927 38.7433 120.658 36.3211 121.841 34.3565C122.429 33.3782 123.116 32.5368 123.856 31.9451C124.594 31.3535 125.36 31.0305 126.121 31.0305C126.882 31.0305 127.647 31.3535 128.386 31.9451C129.125 32.5369 129.812 33.3782 130.401 34.3565C131.584 36.3211 132.315 38.7433 132.315 40.5717C132.315 43.9855 129.535 46.7655 126.121 46.7655C122.707 46.7655 119.927 43.9855 119.927 40.5717Z" fill="white" stroke="black"/>
<path d="M112.733 33.3778C109.319 33.3778 106.539 30.5979 106.539 27.184C106.539 25.3556 107.27 22.9335 108.453 20.9689C109.041 19.9906 109.728 19.1492 110.468 18.5574C111.206 17.9659 111.972 17.6429 112.733 17.6429C113.494 17.6429 114.26 17.9659 114.998 18.5574C115.738 19.1492 116.425 19.9906 117.013 20.9689C118.196 22.9335 118.927 25.3556 118.927 27.184C118.927 30.5979 116.147 33.3778 112.733 33.3778Z" fill="white" stroke="black"/>
<path d="M92.4283 33.3778C89.0145 33.3778 86.2345 30.5979 86.2345 27.184C86.2345 25.3556 86.9655 22.9335 88.148 20.9689C88.7368 19.9906 89.4238 19.1492 90.1629 18.5574C90.9017 17.9659 91.667 17.6429 92.4283 17.6429C93.1894 17.6429 93.9546 17.9659 94.6934 18.5574C95.4325 19.1492 96.1195 19.9906 96.7084 20.9689C97.8909 22.9335 98.6221 25.3556 98.6221 27.184C98.6221 30.5979 95.8422 33.3778 92.4283 33.3778Z" fill="white" stroke="black"/>
</g>
<defs>
<clipPath id="clip0">
<rect x="18.5714" y="17.1429" width="114.286" height="114.286" fill="white"/>
</clipPath>
</defs>
</svg>
